<svg id="Layer_1" data-name="Layer 1" xmlns="http://www.w3.org/2000/svg" viewBox="0 0 136.47 96.53"><defs><style>.cls-1{fill:#f01e28;}</style></defs><path class="cls-1" d="M143.86,49.76l-2.48,2.49a34.77,34.77,0,0,1,0,49.13l2.48,2.48A38.29,38.29,0,0,0,143.86,49.76Z" transform="translate(-48.55 -28.52)"/><path class="cls-1" d="M92.25,52.25l-2.49-2.49a38.29,38.29,0,0,0,0,54.1l2.49-2.48A34.77,34.77,0,0,1,92.25,52.25Z" transform="translate(-48.55 -28.52)"/><path class="cls-1" d="M84.46,109.17l2.48-2.49a42.29,42.29,0,0,1,0-59.74l-2.48-2.48A45.81,45.81,0,0,0,84.46,109.17Z" transform="translate(-48.55 -28.52)"/><path class="cls-1" d="M146.68,106.68l2.49,2.49a45.81,45.81,0,0,0,0-64.71l-2.49,2.48A42.29,42.29,0,0,1,146.68,106.68Z" transform="translate(-48.55 -28.52)"/><path class="cls-1" d="M154.47,39.15,152,41.64A49.81,49.81,0,0,1,152,112l2.48,2.48A53.31,53.31,0,0,0,154.47,39.15Z" transform="translate(-48.55 -28.52)"/><path class="cls-1" d="M81.64,41.64l-2.49-2.49a53.33,53.33,0,0,0,0,75.32L81.64,112A49.79,49.79,0,0,1,81.64,41.64Z" transform="translate(-48.55 -28.52)"/><path class="cls-1" d="M73.85,119.77l2.49-2.48a57.3,57.3,0,0,1,0-80.95l-2.49-2.49A60.82,60.82,0,0,0,73.85,119.77Z" transform="translate(-48.55 -28.52)"/><path class="cls-1" d="M157.29,117.29l2.48,2.48a60.82,60.82,0,0,0,0-85.92l-2.48,2.49A57.3,57.3,0,0,1,157.29,117.29Z" transform="translate(-48.55 -28.52)"/><path class="cls-1" d="M165.08,28.55,162.59,31a64.8,64.8,0,0,1,0,91.56l2.49,2.49A68.34,68.34,0,0,0,165.08,28.55Z" transform="translate(-48.55 -28.52)"/><path class="cls-1" d="M71,31l-2.48-2.48a68.32,68.32,0,0,0,0,96.53L71,122.59A64.82,64.82,0,0,1,71,31Z" transform="translate(-48.55 -28.52)"/><path class="cls-1" d="M102.85,62.85l-2.48-2.48a22.84,22.84,0,0,0-4.93,7.31h3.87A19.77,19.77,0,0,1,102.85,62.85Z" transform="translate(-48.55 -28.52)"/><path class="cls-1" d="M100.37,93.26l2.48-2.49a19.84,19.84,0,0,1-3.62-5H95.36A23,23,0,0,0,100.37,93.26Z" transform="translate(-48.55 -28.52)"/><path class="cls-1" d="M133.26,60.37l-2.49,2.48a19.81,19.81,0,0,1,3.55,4.83h3.87A23.28,23.28,0,0,0,133.26,60.37Z" transform="translate(-48.55 -28.52)"/><path class="cls-1" d="M130.77,90.77l2.49,2.49a23.1,23.1,0,0,0,5-7.49H134.4A19.46,19.46,0,0,1,130.77,90.77Z" transform="translate(-48.55 -28.52)"/><path class="cls-1" d="M97.55,57.55l-2.49-2.49a30.56,30.56,0,0,0-7.61,12.62h3.7A27.16,27.16,0,0,1,97.55,57.55Z" transform="translate(-48.55 -28.52)"/><path class="cls-1" d="M95.06,98.56l2.49-2.48a27,27,0,0,1-6.46-10.31H87.4A30.61,30.61,0,0,0,95.06,98.56Z" transform="translate(-48.55 -28.52)"/><path class="cls-1" d="M138.56,55.06l-2.48,2.49a27.29,27.29,0,0,1,6.4,10.13h3.69A30.56,30.56,0,0,0,138.56,55.06Z" transform="translate(-48.55 -28.52)"/><path class="cls-1" d="M136.08,96.08l2.48,2.48a30.46,30.46,0,0,0,7.67-12.79h-3.69A27.33,27.33,0,0,1,136.08,96.08Z" transform="translate(-48.55 -28.52)"/><path class="cls-1" d="M103.87,77.27l-1.49,3.47H100.7l-1.5-3.48-.52-1.49h-.15l.24,2.1v4.3H96.52V71.34h2.36l2.63,6.22,2.66-6.22h2.36V82.17h-2.25V77.85l.27-2.09h-.16Z" transform="translate(-48.55 -28.52)"/><path class="cls-1" d="M113.88,71.34l3.89,10.83h-2.36l-1-2.48h-3.23l-.9,2.48h-2.4l3.79-10.83Zm-1.47,3.94-.61,2.34h2.08l-.69-2.35-.34-1.55h-.1Z" transform="translate(-48.55 -28.52)"/><path class="cls-1" d="M124.6,78.27h-.82l-3.18,3.9h-2.83l3.47-4.1a3,3,0,0,1-2.59-3.28,3.22,3.22,0,0,1,1.08-2.57,4.35,4.35,0,0,1,2.89-.88h4.25V82.17H124.6Zm0-4.79h-2c-1.13,0-1.69.48-1.69,1.45a1.44,1.44,0,0,0,.44,1.11,1.82,1.82,0,0,0,1.25.39h2Z" transform="translate(-48.55 -28.52)"/><path class="cls-1" d="M138.26,71.34l-4.6,5.29,4.57,5.54h-2.84L132.05,78l-.44.45v3.7h-2.25V71.34h2.25v4.49l3.82-4.49Z" transform="translate(-48.55 -28.52)"/></svg>