<svg id="Layer_1" data-name="Layer 1" xmlns="http://www.w3.org/2000/svg" viewBox="0 0 136.14 126.6"><rect x="29.48" y="32.58" width="3.51" height="61.45"/><rect x="14.74" y="43.41" width="3.51" height="39.79"/><rect x="22.11" y="43.41" width="3.51" height="39.79"/><rect x="110.52" y="32.81" width="3.51" height="60.98"/><rect x="117.89" y="21.7" width="3.51" height="83.2"/><rect x="132.63" width="3.51" height="126.6"/><rect x="125.26" y="10.85" width="3.51" height="104.9"/><rect x="7.37" y="57.88" width="3.51" height="10.85"/><rect y="57.89" width="3.51" height="10.82"/><rect x="88.42" y="72.36" width="3.51" height="21.69"/><rect x="88.42" y="32.56" width="3.51" height="21.7"/><rect x="81.05" y="72.36" width="3.51" height="32.54"/><rect x="81.05" y="21.7" width="3.51" height="32.55"/><rect x="73.68" y="72.36" width="3.51" height="21.67"/><rect x="73.68" y="32.58" width="3.51" height="21.68"/><rect x="95.79" y="72.36" width="3.51" height="32.54"/><rect x="95.79" y="21.7" width="3.51" height="32.55"/><rect x="103.16" y="72.36" width="3.51" height="43.39"/><rect x="103.16" y="10.85" width="3.51" height="43.41"/><rect x="51.58" y="72.36" width="3.51" height="10.84"/><rect x="51.58" y="43.41" width="3.51" height="10.85"/><rect x="44.21" y="72.36" width="3.51" height="10.84"/><rect x="44.21" y="43.41" width="3.51" height="10.85"/><rect x="36.84" y="72.36" width="3.51" height="21.69"/><rect x="36.84" y="32.56" width="3.51" height="21.7"/><rect x="58.95" y="72.36" width="3.51" height="21.69"/><rect x="58.95" y="32.56" width="3.51" height="21.7"/><rect x="66.32" y="21.7" width="3.51" height="32.55"/><rect x="66.32" y="72.36" width="3.51" height="32.54"/><polygon points="79.92 57.88 79.92 57.88 75.34 65.1 75.34 57.88 73.39 57.88 73.39 68.74 75.34 68.74 75.34 68.74 75.34 68.74 79.92 61.51 79.92 68.74 81.87 68.74 81.87 57.88 79.92 57.88"/><polygon points="50.78 66.79 50.78 63.86 54.37 63.86 54.37 61.91 50.78 61.91 50.78 59.82 55.28 59.82 55.28 57.88 48.83 57.88 48.83 68.74 48.83 68.74 48.83 68.74 55.28 68.74 55.28 66.79 50.78 66.79"/><polygon points="72.2 57.88 64.45 57.88 64.45 59.83 67.35 59.83 67.35 68.74 69.3 68.74 69.3 59.83 72.2 59.83 72.2 57.88"/><path d="M95.17,76.29A2.94,2.94,0,0,0,93,71.39H88.71V82.25H93a3.38,3.38,0,0,0,2.2-6Zm-4.51-3h2.28a1,1,0,1,1,0,2.08H90.66Zm2.3,7h-2.3V77.37H93a1.47,1.47,0,0,1,1.59,1.34,1.48,1.48,0,0,1-1.35,1.59,1,1,0,0,1-.24,0Z" transform="translate(-48.74 -13.51)"/><path d="M108.72,80.3a1.83,1.83,0,0,1-1.83-1.83h0v-3.3a1.85,1.85,0,0,1,1.83-1.84H112V71.39h-3.36a3.7,3.7,0,0,0-3.7,3.69h0v3.48a3.7,3.7,0,0,0,3.7,3.69H112v-2Z" transform="translate(-48.74 -13.51)"/><path d="M135.15,72.69v3.79h5v1.29h-5v4.47h-1.29V71.4h6.93v1.29Z" transform="translate(-48.74 -13.51)"/><path d="M143.69,73.82v8.42H142.4V71.4H144l3.36,7.6,3.35-7.56h1.6v10.8H151V73.81l-3.12,7h-1.09Z" transform="translate(-48.74 -13.51)"/></svg>