<svg id="Layer_1" data-name="Layer 1" xmlns="http://www.w3.org/2000/svg" viewBox="0 0 210.5 126.77"><defs><style>.cls-1{fill:#008cff;}</style></defs><rect class="cls-1" x="184.79" y="0.06" width="3.51" height="43.45"/><rect class="cls-1" x="170.01" y="10.92" width="3.51" height="72.38"/><rect class="cls-1" x="125.68" y="21.77" width="3.51" height="32.6"/><rect class="cls-1" x="125.68" y="72.45" width="3.51" height="43.5"/><rect class="cls-1" x="110.91" y="72.45" width="3.51" height="32.34"/><rect class="cls-1" x="110.91" width="3.51" height="54.37"/><rect class="cls-1" x="73.93" y="43.53" width="3.51" height="10.84"/><rect class="cls-1" x="73.93" y="72.45" width="3.51" height="21.72"/><rect class="cls-1" x="96.13" y="72.45" width="3.51" height="32.34"/><rect class="cls-1" x="96.13" y="32.71" width="3.51" height="21.66"/><rect class="cls-1" x="103.53" y="32.64" width="3.51" height="21.73"/><rect class="cls-1" x="103.53" y="72.45" width="3.51" height="43.5"/><rect class="cls-1" x="118.3" y="72.45" width="3.51" height="43.5"/><rect class="cls-1" x="118.3" y="21.77" width="3.51" height="32.6"/><rect class="cls-1" x="140.48" y="32.64" width="3.51" height="21.73"/><rect class="cls-1" x="140.48" y="72.45" width="3.51" height="54.32"/><rect class="cls-1" x="147.85" y="72.45" width="3.51" height="43.5"/><rect class="cls-1" x="147.85" y="21.77" width="3.51" height="32.6"/><rect class="cls-1" x="162.62" y="72.45" width="3.51" height="32.58"/><rect class="cls-1" x="162.62" y="21.83" width="3.51" height="32.54"/><rect class="cls-1" x="177.4" y="11.01" width="3.51" height="83.16"/><rect class="cls-1" x="192.2" y="0.06" width="3.51" height="32.64"/><rect class="cls-1" x="192.2" y="83.33" width="3.51" height="43.39"/><rect class="cls-1" x="199.59" y="32.66" width="3.51" height="10.85"/><rect class="cls-1" x="88.72" y="72.45" width="3.51" height="21.72"/><rect class="cls-1" x="88.72" y="32.74" width="3.51" height="21.64"/><rect class="cls-1" x="81.33" y="72.45" width="3.51" height="10.87"/><rect class="cls-1" x="81.33" y="43.53" width="3.51" height="10.84"/><rect class="cls-1" x="59.15" y="72.45" width="3.51" height="21.72"/><rect class="cls-1" x="59.15" y="10.91" width="3.51" height="43.46"/><rect class="cls-1" x="66.54" y="32.95" width="3.51" height="21.42"/><rect class="cls-1" x="66.54" y="72.45" width="3.51" height="21.72"/><rect class="cls-1" x="51.75" y="72.45" width="3.51" height="21.72"/><rect class="cls-1" x="51.75" y="22.08" width="3.51" height="32.29"/><rect class="cls-1" x="44.36" y="72.45" width="3.51" height="10.87"/><rect class="cls-1" x="44.36" y="33.25" width="3.51" height="21.12"/><rect class="cls-1" x="36.97" y="33.25" width="3.51" height="50.05"/><rect class="cls-1" x="29.57" y="33.25" width="3.51" height="71.54"/><rect class="cls-1" x="22.18" y="43.51" width="3.51" height="72.38"/><rect class="cls-1" x="14.79" y="83.3" width="3.51" height="32.61"/><rect class="cls-1" x="7.4" y="83.31" width="3.51" height="10.85"/><rect class="cls-1" y="72.45" width="3.51" height="10.87"/><rect class="cls-1" x="206.99" y="32.64" width="3.51" height="21.73"/><rect class="cls-1" x="155.23" y="72.45" width="3.51" height="32.58"/><rect class="cls-1" x="155.23" y="21.77" width="3.51" height="32.6"/><rect class="cls-1" x="133.09" y="32.64" width="3.51" height="21.73"/><rect class="cls-1" x="133.09" y="72.45" width="3.51" height="54.32"/><rect class="cls-1" x="184.79" y="83.36" width="3.51" height="21.42"/><path class="cls-1" d="M62.43,82.27V71.44h4.13a3.53,3.53,0,0,1,2.7,1,3.48,3.48,0,0,1,1,2.44,3.44,3.44,0,0,1-1,2.43,3.52,3.52,0,0,1-2.68,1H63.7v3.9Zm1.27-5.18h2.86a2.35,2.35,0,0,0,1.76-.65,2.13,2.13,0,0,0,.05-3.07,2.35,2.35,0,0,0-1.76-.65H63.7Z" transform="translate(-11.56 -13.43)"/><path class="cls-1" d="M75.57,71.44l3.92,10.83H78.14L76.88,78.8H72.71l-.53,1.48-.7,2H70.12L74,71.44Zm-2.43,6.07h3.3q-.33-.92-.87-2.46l-.78-2.23C74.2,74.52,73.65,76.09,73.14,77.51Z" transform="translate(-11.56 -13.43)"/><path class="cls-1" d="M80,84.18V81h.3a1.64,1.64,0,0,0,1.43-1.23,19.6,19.6,0,0,0,.61-4.38l.24-4h6.25V81h1v3.18h-1.2V82.27H81.31v1.91ZM82.64,81h4.93V72.71H84l-.23,3.44A11.17,11.17,0,0,1,82.64,81Z" transform="translate(-11.56 -13.43)"/><path class="cls-1" d="M93.49,82.27H91.9V71.44h1.29v9l5.52-9h1.48V82.27H98.91V73.64Z" transform="translate(-11.56 -13.43)"/><path class="cls-1" d="M102.77,79V74.68a2.88,2.88,0,0,1,1.29-2.5,5.16,5.16,0,0,1,3-.89,5.91,5.91,0,0,1,2.08.36,3.88,3.88,0,0,1,1.61,1.16,2.83,2.83,0,0,1,.64,1.87V79a2.86,2.86,0,0,1-.64,1.88,3.75,3.75,0,0,1-1.61,1.17,5.91,5.91,0,0,1-2.08.36,5.16,5.16,0,0,1-3-.9A2.88,2.88,0,0,1,102.77,79ZM104,74.68V79a1.76,1.76,0,0,0,.9,1.57,4.36,4.36,0,0,0,4.31,0,1.76,1.76,0,0,0,.91-1.57V74.68a1.78,1.78,0,0,0-.9-1.6,4.53,4.53,0,0,0-4.32,0A1.74,1.74,0,0,0,104,74.68Z" transform="translate(-11.56 -13.43)"/><path class="cls-1" d="M113.94,82.27V71.44h4.27a4.49,4.49,0,0,1,1.54.26,3.26,3.26,0,0,1,1.14.69,3.93,3.93,0,0,1,.77,1,3.12,3.12,0,0,1,.37,1.19,6.42,6.42,0,0,1,0,1.24,2.88,2.88,0,0,1-.38,1.18,4.13,4.13,0,0,1-.76,1,3.26,3.26,0,0,1-1.14.69,4.37,4.37,0,0,1-1.52.25h-2v3.35Zm2.23-5.46h2a1.56,1.56,0,0,0,1.22-.48,1.56,1.56,0,0,0-1.22-2.63h-2Z" transform="translate(-11.56 -13.43)"/><path class="cls-1" d="M123.22,78.81V74.9a3.14,3.14,0,0,1,.65-2,3.63,3.63,0,0,1,1.64-1.23,5.73,5.73,0,0,1,2.13-.38,5.27,5.27,0,0,1,3.12.95,3.11,3.11,0,0,1,1.32,2.66v3.91a3.11,3.11,0,0,1-1.31,2.66,5.59,5.59,0,0,1-6.24,0A3.11,3.11,0,0,1,123.22,78.81Zm2.23-3.91v3.91a1.23,1.23,0,0,0,.65,1.11,3,3,0,0,0,1.55.39,2.88,2.88,0,0,0,1.54-.39,1.23,1.23,0,0,0,.65-1.11V74.9a1.28,1.28,0,0,0-.65-1.14,3,3,0,0,0-1.57-.39,2.74,2.74,0,0,0-1.53.4A1.28,1.28,0,0,0,125.45,74.9Z" transform="translate(-11.56 -13.43)"/><path class="cls-1" d="M139.93,79.07l1.94,1.09a4.57,4.57,0,0,1-1.7,1.68,4.25,4.25,0,0,1-2.15.58,4.8,4.8,0,0,1-3-1,3.1,3.1,0,0,1-1.27-2.64v-4A3.13,3.13,0,0,1,135,72.24a4.83,4.83,0,0,1,3-.95,4.44,4.44,0,0,1,2.19.59,3.66,3.66,0,0,1,1.57,1.73l-1.8,1a2,2,0,0,0-.89-.88,2.54,2.54,0,0,0-1.24-.28,2.26,2.26,0,0,0-1.31.41,1.26,1.26,0,0,0-.54,1v4a1.21,1.21,0,0,0,.53,1,2.09,2.09,0,0,0,1.28.4A2.67,2.67,0,0,0,139,80,2,2,0,0,0,139.93,79.07Z" transform="translate(-11.56 -13.43)"/><path class="cls-1" d="M149,79.07l2,1.09a4.59,4.59,0,0,1-1.71,1.68,4.25,4.25,0,0,1-2.15.58,4.8,4.8,0,0,1-3-1,3.1,3.1,0,0,1-1.27-2.64v-4a3.15,3.15,0,0,1,1.26-2.64,4.83,4.83,0,0,1,3-1,4.47,4.47,0,0,1,2.2.59,3.82,3.82,0,0,1,1.57,1.73l-1.81,1a2,2,0,0,0-.89-.88,2.54,2.54,0,0,0-1.24-.28,2.23,2.23,0,0,0-1.3.41,1.23,1.23,0,0,0-.55,1v4a1.21,1.21,0,0,0,.53,1,2.09,2.09,0,0,0,1.28.4,2.5,2.5,0,0,0,1.23-.28A2,2,0,0,0,149,79.07Z" transform="translate(-11.56 -13.43)"/><path class="cls-1" d="M158.49,76.87l.18-1.73h-.06l-.9,1.76-3.34,5.38h-2.23V71.44h2.25v5.83l-.17,1.53h.06l.84-1.69,3.46-5.68h2.16V82.27h-2.25Z" transform="translate(-11.56 -13.43)"/><path class="cls-1" d="M169.19,76.87l.18-1.73h-.06l-.9,1.76-3.34,5.38h-2.23V71.44h2.25v5.83l-.17,1.53H165l.84-1.69,3.46-5.68h2.16V82.27h-2.25Z" transform="translate(-11.56 -13.43)"/></svg>